<?xml version="1.0" encoding="UTF-8"?>
<svg width="249px" height="249px" viewBox="0 0 249 249" version="1.1" xmlns="http://www.w3.org/2000/svg" xmlns:xlink="http://www.w3.org/1999/xlink">
    <!-- Generator: Sketch 53 (72520) - https://sketchapp.com -->
    <title>noun_sun_2214249</title>
    <desc>Created with Sketch.</desc>
    <g id="Page-1" stroke="none" stroke-width="1" fill="none" fill-rule="evenodd">
        <g id="A0" transform="translate(-1195.000000, -534.000000)" fill="#000000" fill-rule="nonzero">
            <g id="noun_sun_2214249" transform="translate(1195.000000, 534.000000)">
                <g id="Group">
                    <path d="M121.11451,0.52552 C121.710743,1.00176634 122.271694,1.5205773 122.79296,2.07788 C116.130858,5.08842573 111.844101,11.7159846 111.83032,19.026716 C111.837265,22.3407636 112.727749,25.5930239 114.41001,28.448362 C113.404204,28.6479891 112.381354,28.7492358 111.35593,28.75067 C110.161189,28.7455575 108.970883,28.6049607 107.80783,28.331575 C108.078115,26.9103085 108.181994,25.4624045 108.11737,24.01711 C107.387844,25.3264127 106.475744,26.5252611 105.40849,27.577616 C104.019016,27.0162273 102.716468,26.2600328 101.53999,25.331758 C102.035863,26.6891352 102.687924,27.9842339 103.48303,29.190952 C102.515091,29.8919418 101.47075,30.4808575 100.37004,30.946402 C99.4222666,31.3388674 98.4385277,31.6381075 97.43275,31.839886 C97.8886075,28.557807 97.4612064,25.2135346 96.194577,22.151591 C93.3730049,15.4072907 86.8689155,10.9354375 79.561486,10.715595 C79.8284936,10.0005077 80.1469651,9.30570749 80.514399,8.636652 C79.4239648,9.24032092 78.3968352,9.9518502 77.448436,10.760554 C76.2064877,10.8637293 74.9780192,11.0912105 73.781475,11.439582 C74.5147779,11.6502976 75.2318561,11.9138481 75.927082,12.228165 C70.9334535,17.5677426 69.5227865,25.3337845 72.319549,32.088452 C73.5992702,35.145109 75.6708066,37.8053016 78.320733,39.794957 C77.4686253,40.3659607 76.5629431,40.8526377 75.616506,41.248099 C74.5728935,41.6787389 73.4861344,41.9962945 72.374845,42.195326 C72.0825774,40.7490114 71.6195875,39.342522 70.995601,38.005403 C70.8187124,39.5351266 70.4191628,41.0307779 69.809624,42.444923 C68.2662768,42.475018 66.7268483,42.2788027 65.240395,41.86253 C66.2390593,42.9444601 67.3624137,43.9042376 68.586961,44.721787 C67.9827807,45.6770875 67.2778419,46.5648028 66.484249,47.36969 C65.7588832,48.0946794 64.9646599,48.74733 64.112817,49.318407 C63.279457,46.1111769 61.6060663,43.1841262 59.26505,40.838821 C54.0796379,35.6849903 46.3598059,34.0388949 39.523104,36.629257 C39.4966688,35.8666345 39.525511,35.1030989 39.609404,34.344644 C38.8324735,35.3189848 38.1552233,36.3687915 37.587821,37.478303 C36.4795698,38.0485922 35.4313195,38.7286127 34.458813,39.508152 C35.216789,39.4224125 35.9799787,39.3916721 36.742395,39.416172 C34.169187,46.2592019 35.8344692,53.9747451 41.001049,59.14726 C43.3520181,61.4827587 46.2831787,63.1491955 49.49252,63.97487 C48.9234566,64.8278967 48.2727101,65.6235049 47.549486,66.35044 C46.7286757,67.1669768 45.8206098,67.890829 44.841643,68.50896 C44.0222194,67.2975392 43.0630513,66.1867805 41.983936,65.19961 C42.400901,66.6633928 42.6041947,68.1797395 42.587517,69.70166 C41.1884475,70.3060024 39.7093073,70.7047655 38.196053,70.88556 C39.521715,71.4984535 40.9148233,71.9534015 42.346704,72.24104 C42.1558625,73.3844953 41.8397674,74.5034769 41.404126,75.57778 C41.0119009,76.5254585 40.5283401,77.4326982 39.960287,78.28666 C37.961598,75.6433253 35.2942597,73.5807026 32.233109,72.31132 C25.4687985,69.5373725 17.7073345,70.9745205 12.384709,75.98654 C12.0683735,75.2921571 11.8027505,74.5757727 11.589925,73.84301 C11.2454065,75.040806 11.021907,76.2701399 10.922783,77.51255 C10.1178393,78.463605 9.41029428,79.4929814 8.810767,80.58523 C9.47814239,80.2158808 10.1713856,79.8953393 10.885059,79.62612 C11.1296331,86.9328011 15.6235182,93.4217438 22.37738,96.22045 C25.4440901,97.4768921 28.7903623,97.8928814 32.071362,97.42555 C31.8723535,98.4315643 31.575883,99.4158161 31.186145,100.36438 C30.7528719,101.407216 30.2090575,102.400601 29.564022,103.32751 C28.334576,102.51145 27.0125641,101.844288 25.62576,101.34004 C26.5823023,102.546544 27.3573726,103.886373 27.926397,105.31705 C26.8566064,106.429904 25.6295193,107.379993 24.28424,108.13704 C25.7551632,108.195817 27.2278704,108.080118 28.671569,107.79236 C28.9200055,108.894985 29.0494209,110.021083 29.057593,111.15132 C29.0572473,112.176987 28.9570392,113.200184 28.758387,114.20643 C25.9011735,112.527704 22.6480328,111.641149 19.334156,111.63811 C12.0232767,111.660627 5.40072403,115.955496 2.3982381,122.62142 C1.84029921,122.100891 1.32079755,121.540632 0.843811,120.94504 C0.983422381,122.183538 1.24691311,123.404908 1.6303263,124.59081 C1.25014286,125.777563 0.989941803,126.999455 0.8536295,128.23814 C1.3289892,127.64146 1.84693591,127.079988 2.4034057,126.55813 C5.42231496,133.216552 12.0553557,137.495039 19.366195,137.49958 C22.6802861,137.488485 25.9314804,136.593899 28.784742,134.90801 C28.9855831,135.913697 29.088041,136.936548 29.090666,137.96209 C29.0892241,139.081515 28.9688315,140.197618 28.731516,141.2916 C27.2793399,141.004998 25.7981919,140.892412 24.31938,140.95622 C25.6697063,141.709108 26.9022306,142.656091 27.977556,143.7669 C27.4139136,145.210388 26.6410007,146.563114 25.683637,147.78164 C27.0691255,147.272579 28.3892349,146.600731 29.616216,145.78022 C30.2595639,146.697639 30.8035034,147.680886 31.238855,148.71337 C31.6302619,149.661254 31.9284629,150.64499 32.129239,151.65066 C28.8473253,151.190744 25.5021331,151.614223 22.438359,152.87746 C15.690466,155.690687 11.2105125,162.189347 10.981694,169.4966 C10.2674162,169.22864 9.57348164,168.909305 8.905335,168.5411 C9.5070588,169.632185 10.2166814,170.660178 11.023552,171.60965 C11.1253441,172.851628 11.3514402,174.080266 11.698446,175.27712 C11.9102163,174.544087 12.1748029,173.827355 12.490129,173.13255 C17.8233284,178.132967 25.5875467,179.553533 32.345764,176.7654 C35.4044002,175.489381 38.0674689,173.420859 40.060537,170.773 C40.6302004,171.625768 41.1154922,172.531969 41.509546,173.47878 C41.9392333,174.523014 42.255751,175.610298 42.453675,176.722 C41.0067188,177.012251 39.5993576,177.473334 38.261164,178.09556 C39.7908266,178.274357 41.2861339,178.675818 42.699653,179.28721 C42.7274113,180.83037 42.5289333,182.369272 42.110542,183.85489 C43.1939994,182.857971 44.1555108,181.736181 44.974966,180.51298 C45.9293362,181.118316 46.8160104,181.824292 47.619768,182.61879 C48.3439912,183.345092 48.9957775,184.140183 49.565902,184.99281 C46.3574959,185.82236 43.4282932,187.492368 41.080114,189.83076 C35.9201068,195.009733 34.2645289,202.727277 36.846265,209.56702 C36.0837395,209.592401 35.320377,209.562523 34.562168,209.47762 C35.535347,210.255809 36.5841138,210.934441 37.692726,211.50333 C38.2617499,212.612145 38.9405582,213.661089 39.718958,214.63441 C39.6340298,213.876028 39.6041516,213.11249 39.629558,212.34979 C46.4691495,214.932146 54.1869208,213.277173 59.366337,208.1175 C61.7048085,205.769175 63.3748219,202.839783 64.204286,199.63119 C65.0567312,200.201344 65.851646,200.853131 66.577783,201.57733 C67.3935693,202.399084 68.1165581,203.308019 68.733725,204.28776 C67.5208701,205.105763 66.4085432,206.06372 65.419715,207.14185 C66.8837789,206.726805 68.4001203,206.525425 69.921765,206.54395 C70.5244297,207.943614 70.9214543,209.423098 71.100505,210.93644 C71.7151957,209.611685 72.1720488,208.219273 72.461662,206.78786 C73.6047334,206.97998 74.7231955,207.297289 75.796859,207.73406 C76.7441432,208.127527 77.6508641,208.612297 78.504187,209.18151 C75.858332,211.176796 73.7923198,213.841458 72.519023,216.90094 C69.7367306,223.6619 71.1643887,231.425205 76.169964,236.75399 C75.4751865,237.069669 74.758453,237.334603 74.025391,237.54671 C75.2226902,237.892734 76.4516781,238.11779 77.6939,238.2185 C78.6441402,239.024586 79.6728254,239.733342 80.764514,240.33413 C80.3956257,239.66621 80.0756004,238.972448 79.80695,238.25829 C87.114059,238.023171 93.6088929,233.537551 96.416267,226.78716 C97.6766335,223.722058 98.0969042,220.376318 97.63377,217.09472 C98.6397009,217.294599 99.6237827,217.591938 100.57209,217.98253 C101.614256,218.417605 102.606777,218.963152 103.53264,219.60982 C102.714997,220.838039 102.046097,222.159008 101.53999,223.54498 C102.747741,222.589812 104.088621,221.816306 105.52011,221.24899 C106.631231,222.320277 107.5794,223.548578 108.33441,224.89476 C108.395268,223.423912 108.28165,221.951033 107.99593,220.50692 C109.099045,220.2598 110.225494,220.131771 111.35593,220.12503 C112.381371,220.126633 113.404221,220.228051 114.41001,220.42785 C112.727837,223.283037 111.837356,226.535108 111.83032,229.84898 C111.843896,237.159901 116.130686,243.787716 122.79296,246.79834 C122.271676,247.355464 121.710725,247.8741 121.11451,248.35018 C122.353159,248.212487 123.574874,247.950901 124.76131,247.56935 C125.947581,247.950868 127.169123,248.212454 128.4076,248.35018 C127.811385,247.8741 127.250434,247.355464 126.72915,246.79834 C133.391221,243.787562 137.677787,237.15978 137.69127,229.84898 C137.684234,226.535108 136.793753,223.283037 135.11158,220.42785 C136.11754,220.228017 137.140565,220.126599 138.16618,220.12503 C139.361459,220.130194 140.552292,220.270965 141.71583,220.54464 C141.445146,221.96534 141.340746,223.412719 141.40474,224.85756 C142.134349,223.548623 143.046445,222.350127 144.11362,221.29809 C145.503332,221.859755 146.806058,222.616301 147.98263,223.54498 C147.485781,222.187459 146.83268,220.892353 146.0365,219.68578 C147.00525,218.98462 148.050465,218.3957 149.15207,217.93033 C150.099639,217.537543 151.083203,217.237956 152.08884,217.03581 C151.63263,220.318181 152.059854,223.662834 153.32649,226.72514 C156.148373,233.469573 162.652933,237.941269 169.96062,238.16062 C169.693399,238.875369 169.374755,239.569823 169.00719,240.23853 C170.097759,239.635217 171.125061,238.924034 172.07367,238.11566 C173.315635,238.012317 174.544104,237.784665 175.74063,237.43612 C175.007166,237.225595 174.289916,236.962215 173.59451,236.64805 C178.588488,231.308695 179.999561,223.542632 177.20307,216.78777 C175.923141,213.7308 173.851231,211.070405 171.20085,209.08074 C172.052653,208.509975 172.957988,208.023475 173.90405,207.62812 C174.94897,207.197018 176.037132,206.879283 177.14985,206.68037 C177.441123,208.126554 177.90307,209.533042 178.52599,210.8703 C178.702925,209.34075 179.102471,207.845274 179.71196,206.43129 C181.255112,206.401078 182.794365,206.59712 184.28068,207.01317 C183.282939,205.930675 182.160455,204.970207 180.9367,204.15185 C181.540412,203.197732 182.244647,202.311069 183.03734,201.50705 C183.762845,200.781852 184.557244,200.129025 185.40929,199.55781 C186.24265,202.765042 187.916042,205.692094 190.25706,208.0374 C195.442357,213.191408 203.162201,214.837708 209.999,212.24748 C210.02541,213.009928 209.996568,213.773288 209.9127,214.53157 C210.68981,213.557252 211.367234,212.507444 211.9348,211.39791 C213.042695,210.827564 214.090598,210.147548 215.06278,209.36807 C214.304633,209.453841 213.541269,209.484588 212.77868,209.46007 C215.352059,202.617483 213.687404,194.902249 208.52157,189.72949 C206.17052,187.393724 203.239169,185.727099 200.02959,184.90136 C200.598488,184.04836 201.249059,183.252756 201.9721,182.5258 C202.793749,181.708177 203.702869,180.983446 204.68305,180.36469 C205.501699,181.576723 206.460174,182.688177 207.53869,183.67611 C207.121824,182.212658 206.918531,180.696666 206.93511,179.17509 C208.33388,178.571022 209.812664,178.172436 211.32554,177.99171 C210.000387,177.377474 208.607623,176.921139 207.17592,176.6321 C207.366778,175.489539 207.682696,174.371429 208.11798,173.29793 C208.510402,172.350411 208.994137,171.443346 209.56234,170.58957 C211.561093,173.232716 214.228422,175.295158 217.28951,176.5644 C224.053435,179.338033 231.814347,177.901112 237.13688,172.88969 C237.453368,173.583893 237.719164,174.300107 237.93218,175.03271 C238.276664,173.835083 238.500162,172.605925 238.59932,171.36369 C239.404475,170.412494 240.112197,169.382942 240.71186,168.29049 C240.044347,168.660218 239.350929,168.981107 238.63705,169.25064 C238.392788,161.943453 233.89861,155.453973 227.14421,152.65527 C224.077813,151.399015 220.731922,150.983032 217.45126,151.45018 C217.649903,150.444021 217.94603,149.459591 218.33545,148.51082 C218.769406,147.467157 219.314091,146.473067 219.96015,145.54562 C221.188982,146.362471 222.510472,147.030502 223.89686,147.53568 C222.940233,146.328856 222.165162,144.98867 221.59623,143.55763 C222.66597,142.445368 223.892876,141.495811 225.23787,140.7392 C223.766916,140.679193 222.294033,140.793681 220.85002,141.08027 C220.601976,139.978635 220.472734,138.853585 220.46451,137.7244 C220.465061,136.698886 220.565445,135.675861 220.76424,134.6698 C223.621503,136.348347 226.874641,137.234726 230.18847,137.23761 C237.499346,137.21509 244.121895,132.920221 247.12438,126.2543 C247.681984,126.775032 248.201142,127.335465 248.67778,127.9312 C248.538371,126.692544 248.275052,125.470998 247.89178,124.28491 C248.272138,123.098175 248.532511,121.876283 248.66899,120.63758 C248.193632,121.234257 247.675687,121.795725 247.11922,122.31758 C244.100079,115.65919 237.466817,111.380894 230.15591,111.37665 C226.842041,111.387683 223.591041,112.282088 220.73788,113.96771 C220.536899,112.96221 220.434269,111.939535 220.43144,110.91415 C220.433003,109.793648 220.553746,108.67649 220.79163,107.58153 C222.24336,107.868917 223.724153,107.982372 225.20272,107.9195 C223.852314,107.167129 222.619619,106.22067 221.54403,105.11037 C222.107697,103.666308 222.880791,102.31305 223.83847,101.09408 C222.452361,101.602341 221.131552,102.273499 219.90382,103.09344 C219.261318,102.17658 218.718077,101.194032 218.28325,100.16235 C217.891489,99.2145031 217.592941,98.230766 217.39183,97.22506 C220.673867,97.6852343 224.01925,97.2619336 227.08323,95.99878 C233.830718,93.1852394 238.310221,86.6866454 238.53886,79.37964 C239.253475,79.6473855 239.947755,79.9665474 240.61625,80.33462 C240.014364,79.243513 239.304569,78.215519 238.49752,77.26607 C238.395764,76.0239168 238.169669,74.7951026 237.82263,73.59808 C237.611242,74.3314358 237.347001,75.0485129 237.03198,75.74368 C231.69878,70.7432606 223.934559,69.3226945 217.17634,72.11083 C214.117956,73.3867842 211.455082,75.455115 209.46209,78.10271 C208.892276,77.2501281 208.40681,76.3441022 208.01256,75.39745 C207.582661,74.3522245 207.26614,73.2638935 207.06843,72.15114 C208.515098,71.8616756 209.922278,71.4014606 211.26042,70.78016 C209.731137,70.6014265 208.236188,70.2001388 206.82297,69.58902 C206.794437,68.0456176 206.992218,66.5063635 207.41001,65.02031 C206.326224,66.0170109 205.364367,67.1386315 204.54456,68.36171 C203.590984,67.7567372 202.705009,67.0512834 201.90182,66.25744 C201.177599,65.5311407 200.525814,64.7360531 199.95569,63.88343 C203.16417,63.0542573 206.093548,61.3846054 208.44199,59.04651 C213.602236,53.8672279 215.257641,46.1491607 212.67533,39.309221 C213.438039,39.2839877 214.201574,39.3140396 214.95994,39.399141 C213.986784,38.6207695 212.938015,37.9419609 211.82938,37.372906 C211.260386,36.2639132 210.581578,35.2147968 209.80315,34.241314 C209.888078,34.9996948 209.917956,35.7632317 209.89255,36.52593 C203.053006,33.9439322 195.335491,35.5991003 190.15629,40.758747 C187.817709,43.106865 186.147518,46.0360724 185.31782,49.244533 C184.465555,48.6743533 183.670814,48.0225683 182.94484,47.298398 C182.128392,46.4760775 181.404878,45.5664422 180.78735,44.585903 C182.000481,43.7684488 183.113152,42.8110125 184.10239,41.733364 C182.638184,42.1486324 181.121664,42.3501852 179.59982,42.331777 C178.997429,40.93241 178.600582,39.4532798 178.4216,37.940313 C177.805961,39.2644402 177.34807,40.6563313 177.05735,42.087347 C175.915352,41.8951744 174.797941,41.5780433 173.72525,41.141668 C172.778144,40.7481693 171.871598,40.2633973 171.01844,39.694212 C173.664102,37.6988593 175.729928,35.0342058 177.00308,31.974787 C179.784925,25.2141156 178.357292,17.4513513 173.35214,12.122769 C174.046906,11.8069141 174.763642,11.5418088 175.49672,11.329535 C174.299252,10.9834762 173.070087,10.7584184 171.82769,10.657742 C170.877475,9.85147589 169.84879,9.14254473 168.75708,8.541592 L168.75708,8.542109 C169.126122,9.2098476 169.44632,9.90343685 169.71516,10.617434 C162.407989,10.852929 155.913333,15.3389683 153.10635,22.089602 C151.846081,25.154546 151.425817,28.5000921 151.88886,31.781517 C150.883103,31.5816085 149.899193,31.2842724 148.95105,30.893715 C147.907946,30.4584773 146.914551,29.9125781 145.98792,29.26539 C146.80617,28.0377587 147.475761,26.7173128 147.98263,25.331782 C146.774497,26.2866701 145.433268,27.0598264 144.00148,27.62673 C142.890259,26.5557934 141.94192,25.3278432 141.18667,23.981992 C141.12526,25.4529529 141.238359,26.9260092 141.5236,28.370355 C140.42144,28.6167328 139.296043,28.744241 138.1667,28.750694 C137.141276,28.7492598 136.118426,28.6480131 135.11262,28.448386 C136.794793,25.5931991 137.685273,22.3411291 137.69231,19.027257 C137.678639,11.7162167 133.391625,5.08837307 126.72915,2.077904 C127.250582,1.52058218 127.811708,1.00177077 128.40812,0.525544 C127.169432,0.663572779 125.947713,0.925505306 124.76131,1.307408 C123.574911,0.925505958 122.353195,0.663573438 121.11451,0.525544 L121.11451,0.52552 Z M124.76131,4.624494 C126.320012,7.12210097 127.149952,10.0054993 127.15755,12.949567 C127.154193,15.9013662 126.324088,18.7932108 124.76131,21.297378 C123.198535,18.7932097 122.368434,15.9013652 122.36508,12.949567 C122.372675,10.0055003 123.202612,7.12210201 124.76131,4.624494 L124.76131,4.624494 Z M170.56007,13.72368 C171.045516,16.6270718 170.710286,19.6083442 169.59217,22.331423 C168.461031,25.0581542 166.588678,27.4134988 164.18733,29.130492 C163.700163,26.2189597 164.038329,23.2291771 165.1635,20.500012 C166.295992,17.7826248 168.165093,15.4356434 170.56007,13.72368 L170.56007,13.72368 Z M78.723294,13.82342 C81.121684,15.5302404 82.9956078,17.8730924 84.133817,20.587865 C85.2650537,23.3145664 85.6098431,26.3036363 85.129105,29.216279 C82.7237772,27.5046435 80.8460477,25.1534084 79.708764,22.429095 C78.5851053,19.7083268 78.2437902,16.7277727 78.723294,13.82342 L78.723294,13.82342 Z M124.76131,25.982883 C127.670256,25.9827522 130.028535,28.3407995 130.02869,31.249745 C130.028753,32.6467605 129.473819,33.9865759 128.48598,34.9744151 C127.498141,35.9622543 126.158325,36.5171888 124.76131,36.517126 C123.364295,36.5171888 122.024479,35.9622543 121.03664,34.9744151 C120.048801,33.9865759 119.493867,32.6467605 119.49393,31.249745 C119.494085,28.3407995 121.852364,25.9827522 124.76131,25.982883 L124.76131,25.982883 Z M106.4291,32.689452 C108.835647,34.9230997 111.789565,36.4813506 114.99188,37.20649 C112.139722,38.605813 109.892757,40.9932606 108.66876,43.92494 C106.415585,41.6905768 103.42845,40.3493138 100.26152,40.149979 C102.938566,38.2497321 105.066187,35.6760857 106.4291,32.689452 Z M142.95865,32.807792 C144.333315,35.7260968 146.441904,38.2376356 149.07817,40.09675 C145.962245,40.294768 143.019299,41.5983874 140.77894,43.773011 C139.539586,40.9052411 137.316818,38.5743517 134.5111,37.200288 C137.659761,36.4922095 140.570597,34.9786539 142.95865,32.807792 L142.95865,32.807792 Z M160.49556,33.061006 C161.14816,33.0749258 161.792487,33.2100288 162.39571,33.459431 C163.686663,33.9933492 164.712628,35.0182534 165.24788,36.3086542 C165.783132,37.599055 165.783823,39.0492379 165.2498,40.340148 C164.715783,41.6310085 163.690837,42.6568553 162.400446,43.192006 C161.110055,43.7271567 159.659925,43.7277729 158.36908,43.193719 C157.078127,42.6598008 156.052162,41.6348966 155.51691,40.3444958 C154.981658,39.054095 154.980967,37.6039121 155.51499,36.313002 C156.345651,34.3055937 158.323582,33.0141304 160.49556,33.061006 L160.49556,33.061006 Z M88.983132,33.137486 C88.9833047,33.137486 88.9834773,33.137486 88.98365,33.137486 C89.688213,33.141669 90.3847759,33.2871675 91.032102,33.565368 C92.2909557,34.1058372 93.2896996,35.1155179 93.816427,36.380183 C94.3532306,37.6699925 94.3556244,39.1202282 93.8230818,40.4118028 C93.2905391,41.7033773 92.2666909,42.7304725 90.976809,43.267102 C89.6870641,43.8039352 88.2368821,43.8064022 86.9453182,43.2739602 C85.6537543,42.7415183 84.6266183,41.717787 84.089891,40.427998 C83.5532792,39.1381827 83.5510445,37.6880226 84.0836786,36.3965597 C84.6163127,35.1050967 85.6401815,34.0781293 86.930029,33.541595 C87.5804832,33.2709391 88.2786254,33.1335248 88.983132,33.137486 L88.983132,33.137486 Z M209.48275,39.718481 C208.819052,42.586566 207.367339,45.2122165 205.29128,47.299412 C203.201671,49.384557 200.569746,50.8426597 197.69381,51.508457 C198.359283,48.6322084 199.817216,45.9999099 201.90234,43.909954 C203.989392,41.8339779 206.614851,40.38227 209.48275,39.718481 L209.48275,39.718481 Z M39.936515,39.821828 C42.8052398,40.482093 45.4324914,41.9305807 47.522098,44.004002 C49.6096102,46.0911162 51.0707524,48.7212441 51.739927,51.596302 C48.8632855,50.9343205 46.2295826,49.4798048 44.137292,47.397593 C42.0586733,45.3129521 40.6037371,42.6890912 39.936515,39.821828 L39.936515,39.821828 Z M115.33243,42.120912 C116.053705,42.1220092 116.773161,42.1933148 117.48062,42.33382 C116.297403,44.3422186 115.671104,46.6297883 115.66626,48.960806 C115.67681,54.055973 118.638681,58.6834783 123.26115,60.82675 C118.638515,62.970099 115.676613,67.5978499 115.66626,72.6932 C115.672653,74.8453637 116.208815,76.9628524 117.22741,78.85872 C116.897434,79.0419154 116.558342,79.2081841 116.21145,79.35688 C116.068866,79.4113371 115.925176,79.4628514 115.78047,79.51139 C115.631285,79.5216366 115.481907,79.5288714 115.33243,79.53309 C114.951296,79.532334 114.570453,79.5119738 114.19141,79.47209 C114.408616,77.3284497 114.094107,75.1643179 113.27571,73.17118 C111.30808,68.470482 106.794657,65.3359787 101.70277,65.13395 C105.146788,61.3791386 106.103241,55.9689255 104.15534,51.260895 C103.255155,49.11077 101.797955,47.2395465 99.93389,45.840035 C100.533279,45.4383792 101.170355,45.0960438 101.8361,44.817875 C103.958058,43.9369625 106.300869,43.7353044 108.54215,44.24065 C108.502963,44.3354568 108.464891,44.4307204 108.42794,44.526421 C108.535727,44.4464179 108.644955,44.3683741 108.75557,44.292328 C108.882194,44.3211225 109.008303,44.3521339 109.13384,44.385348 C109.063331,44.3144266 108.992013,44.2443143 108.9199,44.175025 C110.793649,42.8439026 113.033997,42.1264283 115.33243,42.121404 L115.33243,42.120912 Z M134.19019,42.120912 C136.437477,42.1212897 138.63186,42.8029016 140.48387,44.075834 C140.392604,44.1664885 140.302678,44.2584815 140.21412,44.351783 C140.37637,44.3103781 140.539535,44.2726451 140.70349,44.238613 C140.835968,44.3316982 140.966395,44.4276671 141.09468,44.526451 C141.047932,44.4103534 140.999524,44.2949312 140.94947,44.18022 C143.146753,43.7080374 145.435562,43.9130799 147.51393,44.768296 C148.180227,45.0450266 148.817997,45.3859773 149.41821,45.786322 C147.55709,47.1897224 146.103815,49.0639765 145.20813,51.215964 C143.269976,55.9282847 144.237928,61.3367616 147.69015,65.08437 C142.599389,65.2980268 138.09359,68.4420894 136.13633,73.14641 C135.314846,75.148278 135.001676,77.3223654 135.22476,79.4747 C134.880999,79.5102406 134.535767,79.5297285 134.19019,79.5331 C134.020514,79.5281842 133.850973,79.5193819 133.6817,79.5067 C133.524403,79.4542163 133.368301,79.3982189 133.21351,79.33875 C132.890889,79.2042118 132.574794,79.0545287 132.26628,78.8902 C133.299969,76.9875411 133.846264,74.8584594 133.85636,72.69316 C133.844608,67.5960228 130.879385,62.9677995 126.25373,60.82671 C130.879219,58.6856977 133.844411,54.05772 133.85636,48.960766 C133.851361,46.6297012 133.224885,44.3421284 132.04149,42.33378 C132.749133,42.1934161 133.468761,42.1222842 134.19019,42.121391 L134.19019,42.120912 Z M176.67649,46.693761 C176.814666,49.9428283 177.800573,53.0991936 179.53626,55.84927 C176.559424,54.8311339 173.315712,54.9175243 170.39729,56.09267 C170.365218,52.9443796 169.201153,49.9127888 167.1179,47.552107 C170.324396,48.1052962 173.619849,47.8093699 176.67649,46.693761 Z M72.747947,46.837422 C75.7880768,47.9233108 79.0581321,48.2009199 82.237807,47.643057 C80.1691775,49.9908151 79.0085499,53.0010753 78.965655,56.12987 C76.0663777,54.983153 72.8533167,54.9073053 69.90316,55.91594 C71.6208351,53.1868265 72.6010328,50.0587392 72.747947,46.837422 L72.747947,46.837422 Z M124.76131,47.363488 C125.86067,49.1249354 126.444629,51.1591176 126.447,53.235481 C126.441546,55.3062223 125.857706,57.3342628 124.76131,59.09094 C123.664917,57.3342618 123.081081,55.3062214 123.07563,53.235481 C123.077998,51.1591186 123.661953,49.1249365 124.76131,47.363488 L124.76131,47.363488 Z M162.87268,51.351356 L162.8732,51.351356 C163.580689,51.492058 164.2728,51.7013012 164.93974,51.976125 C167.036493,52.8446242 168.817118,54.3341904 170.04227,56.2446 C169.933822,56.2893139 169.825979,56.3354814 169.71877,56.38309 C169.87017,56.4051382 170.021099,56.4303102 170.17146,56.45859 C170.250289,56.5836615 170.326614,56.7102934 170.40039,56.83841 C170.401211,56.7243728 170.400545,56.6103298 170.39839,56.49631 C172.633152,56.8923005 174.693123,57.9629512 176.30139,59.56434 C176.810825,60.0753127 177.269292,60.6346789 177.6703,61.23452 C175.413294,61.8177029 173.352616,62.9921744 171.70063,64.6369 C168.105088,68.2473179 166.927339,73.6140948 168.68066,78.39833 C163.896425,76.6450095 158.529648,77.8227581 154.91923,81.4183 C153.397379,82.9492015 152.277119,84.8322199 151.65793,86.90014 C151.312723,86.7988786 150.972636,86.6809164 150.63887,86.54667 C150.490602,86.4803058 150.343807,86.4106991 150.19859,86.3379 C150.079015,86.2337955 149.961682,86.1271445 149.84667,86.01802 C149.590211,85.7607089 149.346521,85.4909784 149.11648,85.2098 C150.794224,83.8479236 152.109294,82.0924267 152.94467,80.09952 C154.882118,75.3848636 153.911043,69.9745964 150.45491,66.22802 C155.547904,66.017763 160.057259,62.8743321 162.01647,58.16856 C162.902901,56.0127157 163.198479,53.6595056 162.87275,51.351406 L162.87268,51.351356 Z M86.490778,51.435076 C86.1701546,53.7438302 86.4709056,56.0963217 87.362043,58.25016 C89.3316214,62.9512571 93.8475509,66.0845528 98.94067,66.28378 C95.4930949,70.0377821 94.533925,75.4497604 96.481387,80.15993 C97.3182993,82.1557908 98.6363279,83.9134025 100.31784,85.2759 C100.100192,85.5441665 99.870156,85.8021399 99.62848,86.04898 C99.5055167,86.165351 99.3799106,86.2788973 99.25176,86.38953 C99.1031681,86.4640307 98.9529237,86.5351886 98.80114,86.60295 C98.4782143,86.7362032 98.1491857,86.8541575 97.81515,86.95642 C97.1980109,84.8811625 96.0764862,82.9910632 94.550747,81.45494 C90.9360253,77.8633521 85.5675563,76.6918336 80.785184,78.45099 C82.5320584,73.6647462 81.3474794,68.299883 77.747643,64.69421 C76.0939505,63.0516462 74.0322249,61.8796847 71.774881,61.29907 C72.1752898,60.6985789 72.633238,60.1385179 73.142239,59.62682 C74.7296653,58.0364432 76.7618661,56.9645785 78.970822,56.55259 C78.9705091,56.6807628 78.9720759,56.8089332 78.975522,56.93706 C79.0605103,56.7933238 79.148727,56.6515211 79.240105,56.51176 C79.3997443,56.483625 79.5599799,56.4589858 79.720697,56.43786 C79.605791,56.3891853 79.4901959,56.3421539 79.373947,56.29678 C80.5912976,54.407714 82.3527148,52.9320606 84.425835,52.064486 C85.0921107,51.7881698 85.7837024,51.577369 86.490826,51.435066 L86.490778,51.435076 Z M154.22256,53.217397 C154.565057,55.2651298 154.327143,57.3678579 153.53578,59.2873 C152.73923,61.1985504 151.42462,62.8492888 149.74015,64.05342 C149.398548,62.011118 149.634267,59.9139964 150.42073,57.99849 C151.216596,56.0809926 152.533617,54.424737 154.22256,53.217397 L154.22256,53.217397 Z M190.733,53.278377 C190.73317,53.278377 190.73334,53.278377 190.73351,53.278377 C192.103398,53.2985348 193.411526,53.8516629 194.38032,54.820392 C196.437266,56.8771709 196.437499,60.2119739 194.38084,62.26904 C193.393047,63.2569111 192.053265,63.8118979 190.65626,63.8118979 C189.259255,63.8118979 187.919473,63.2569111 186.93168,62.26904 C185.94381,61.2812471 185.388823,59.9414659 185.388823,58.544461 C185.388823,57.1474561 185.94381,55.8076749 186.93168,54.819882 C187.938422,53.8134832 189.309649,53.2574257 190.733,53.278377 L190.733,53.278377 Z M95.145547,53.280477 C96.8373654,54.484222 98.1581622,56.1378115 98.95824,58.05383 C99.7486934,59.9678325 99.9887077,62.0646037 99.65122,64.10772 C97.9639155,62.9068337 96.6457023,61.2583974 95.845247,59.34832 C95.0499089,57.4307435 94.8075216,55.3287448 95.145547,53.280477 L95.145547,53.280477 Z M58.857322,53.357987 C60.22709,53.376506 61.5357541,53.927958 62.50568,54.895352 C63.4950101,55.8818656 64.0518609,57.2210283 64.0536988,58.618161 C64.0555367,60.0152938 63.5022112,61.3559169 62.51548,62.34503 C61.5287276,63.3341202 60.1894315,63.8906463 58.7922996,63.8921467 C57.3951677,63.893647 56.0546795,63.3399986 55.065805,62.35303 C53.0068537,60.2982631 53.0033615,56.9634665 55.058005,54.904392 C56.0634709,53.8968075 57.4339416,53.3390764 58.857255,53.358237 L58.857322,53.357987 Z M124.76131,62.56259 C125.857705,64.3192646 126.441544,66.3473017 126.447,68.41804 C126.444533,70.494229 125.860578,72.5282205 124.76131,74.28952 C123.662045,72.5282195 123.078094,70.494228 123.07563,68.41804 C123.081083,66.3473027 123.664919,64.3192656 124.76131,62.56259 L124.76131,62.56259 Z M148.41361,67.26153 C148.754884,69.3039244 148.518809,71.4010454 147.732,73.31645 C146.936219,75.2341402 145.61919,76.8905871 143.93017,78.09807 C143.587573,76.0501663 143.825488,73.9472415 144.61695,72.02764 C145.413784,70.1162654 146.728762,68.465517 148.41361,67.26153 L148.41361,67.26153 Z M100.98602,67.31323 C102.672982,68.5139088 103.990995,70.1619644 104.79147,72.0716 C105.587354,73.9893899 105.830105,76.0917789 105.49221,78.14048 C103.800125,76.9366662 102.479137,75.282882 101.679,73.36661 C100.888642,71.4527618 100.648629,69.3561808 100.98602,67.31323 L100.98602,67.31323 Z M193.34317,69.64642 C196.070158,71.372373 199.198591,72.3606351 202.42221,72.51446 C201.330492,75.5497597 201.045239,78.8164401 201.59435,81.99502 C199.251121,79.9317616 196.248443,78.7725442 193.12665,78.72597 C194.278394,75.8219363 194.355179,72.6020527 193.34317,69.64642 L193.34317,69.64642 Z M56.11227,69.72912 C55.0909856,72.7121481 55.1790489,75.9633314 56.360317,78.8867 C53.2183367,78.9214386 50.193351,80.0835669 47.836291,82.16143 C48.380801,78.9562288 48.0774082,75.6643456 46.956239,72.61266 C50.2076718,72.4674252 53.3643889,71.4732695 56.11227,69.72912 L56.11227,69.72912 Z M179.26238,69.93892 C178.793977,71.9615905 177.76839,73.8126249 176.30184,75.28226 C174.833665,76.7429956 172.986554,77.7644567 170.96883,78.23144 C171.435663,76.2137739 172.456938,74.3666691 173.91748,72.89843 C175.38767,71.4320028 177.239265,70.406761 179.26238,69.93892 L179.26238,69.93892 Z M70.194614,70.00402 C72.2180231,70.4698092 74.0704999,71.4930768 75.542092,72.95785 C77.004418,74.4241309 78.0280167,76.2697932 78.497467,78.28672 C76.4791901,77.8222621 74.6308292,76.8031296 73.160842,75.34426 C71.6927188,73.8761721 70.6651604,72.0262104 70.194614,70.00402 L70.194614,70.00402 Z M187.96572,71.53003 C188.565538,71.930874 189.124903,72.389166 189.6359,72.89842 C191.224746,74.4877701 192.294464,76.5214354 192.70394,78.73114 C192.575246,78.7309117 192.446555,78.7325786 192.31791,78.73614 C192.462183,78.8216185 192.604503,78.9103512 192.74476,79.00227 C192.772386,79.1617504 192.796525,79.3218153 192.81716,79.48235 C192.866175,79.3676221 192.91355,79.2522003 192.95927,79.13612 C194.846948,80.355564 196.320618,82.1185976 197.18588,84.19265 C197.461024,84.8593893 197.670613,85.5513288 197.81168,86.25868 C195.503368,85.9350957 193.15052,86.2328139 190.99556,87.12116 C186.292857,89.0829409 183.152982,93.5920243 182.94437,98.68324 C179.1935,95.234012 173.783702,94.2708756 169.07287,96.21362 C167.076555,97.0483353 165.317899,98.3642208 163.9538,100.04388 C163.685688,99.8258847 163.427888,99.5955045 163.18124,99.35349 C163.065216,99.2305121 162.952013,99.1049027 162.84172,98.97676 C162.767027,98.827664 162.695699,98.6769058 162.62779,98.5246 C162.4949,98.2018266 162.37729,97.8729721 162.27535,97.53913 C164.351647,96.9244753 166.243355,95.8050728 167.78147,94.28093 C171.37707,90.6684842 172.552906,85.2994374 170.79628,80.51484 C175.581023,82.2716868 180.950334,81.095841 184.56288,77.50004 C186.207712,75.8482582 187.382357,73.7877646 187.96577,71.53089 L187.96572,71.53003 Z M61.491786,71.60653 L61.491786,71.60705 C62.0777906,73.8631574 63.2547525,75.9222163 64.901397,77.57206 C68.5184875,81.1631617 73.889183,82.3321488 78.671618,80.56929 C76.9206868,85.3565905 78.1036128,90.7248044 81.704508,94.33279 C83.2371658,95.8527101 85.1214194,96.9706586 87.189961,97.58737 C87.0892251,97.9327251 86.9717812,98.2729856 86.838044,98.60695 C86.7719924,98.7545135 86.7027289,98.9006183 86.630303,99.04516 C86.5260527,99.1654372 86.4192307,99.2834611 86.309911,99.39915 C86.0531529,99.656273 85.7839399,99.9006498 85.503242,100.1314 C84.139365,98.4546727 82.3820686,97.1411831 80.38779,96.30786 C75.6728056,94.3759295 70.2655085,95.3511445 66.522489,98.80849 C66.3024739,93.7177701 63.1525251,89.2157417 58.445461,87.26449 C56.288543,86.3806751 53.9349759,86.087951 51.627273,86.41648 C51.7672412,85.7087093 51.9757925,85.0162488 52.249975,84.3489 C53.1157923,82.2511734 54.603006,80.4687559 56.51173,79.24121 C56.5564493,79.3494806 56.6026177,79.4571469 56.650223,79.56418 C56.6719232,79.4131352 56.6967318,79.2625532 56.724633,79.11253 C56.8498672,79.0333492 56.9766722,78.9566805 57.104972,78.88257 C56.9909398,78.8814154 56.8768975,78.8817487 56.762874,78.88357 C57.156152,76.6483724 58.2242762,74.5871421 59.823669,72.97695 C60.3339175,72.4670816 60.89259,72.008097 61.491782,71.60649 L61.491786,71.60653 Z M232.99088,78.32395 C232.991053,78.32395 232.991227,78.32395 232.9914,78.32395 C233.809588,78.3315951 234.625947,78.4027792 235.43311,78.53686 C233.723402,80.9333691 231.378215,82.8046146 228.66195,83.93963 C225.934145,85.0676509 222.944909,85.4090372 220.03301,84.9251 C221.747184,82.5216083 224.100387,80.6463849 226.82588,79.51199 C228.780726,78.7075937 230.877101,78.3036073 232.99088,78.32395 L232.99088,78.32395 Z M17.137906,78.56528 C17.1380783,78.56528 17.1382507,78.56528 17.138423,78.56528 C19.0135377,78.6273086 20.8626215,79.0227759 22.599071,79.73316 C25.3273603,80.8612436 27.6850484,82.7311054 29.404858,85.13077 C26.4937373,85.6213347 23.5034055,85.2865691 20.772827,84.16442 C18.0540095,83.0352655 15.7046993,81.1690269 13.989778,78.77612 C15.0294917,78.6009855 16.0841239,78.5303535 17.137906,78.56528 L17.137906,78.56528 Z M168.51368,80.6866 C168.046574,82.7037095 167.025314,84.5502418 165.56502,86.01805 C164.095242,87.4846844 162.244016,88.5102777 160.22116,88.97859 C160.689565,86.9559184 161.715156,85.1048839 163.18171,83.63525 C164.649663,82.1748758 166.496386,81.1536135 168.51368,80.6866 L168.51368,80.6866 Z M80.955716,80.7393 C82.9735647,81.2037873 84.8215396,82.2227211 86.291306,83.68123 C87.7597017,85.149398 88.7874481,86.9995566 89.25805,89.02199 C87.2344002,88.5561464 85.381728,87.5326928 83.910056,86.06765 C82.4481914,84.6013863 81.4249638,82.7559268 80.955716,80.7393 L80.955716,80.7393 Z M210.87543,83.46988 C211.580172,83.4748766 212.276745,83.6212532 212.92389,83.90034 C214.182251,84.4423285 215.179897,85.453325 215.70511,86.71878 C216.81971,89.4056867 215.545142,92.4874206 212.85826,93.60208 C211.567834,94.1374626 210.11757,94.1382391 208.826571,93.6042385 C207.535572,93.070238 206.509614,92.0452125 205.97444,90.7547 C205.43925,89.4642699 205.438632,88.0140833 205.972721,86.7231973 C206.506811,85.4323114 207.531855,84.4064809 208.82233,83.8714 C209.472966,83.6016315 210.171101,83.465099 210.87543,83.46988 L210.87543,83.46988 Z M38.712299,83.65746 C38.712472,83.65746 38.712645,83.65746 38.712818,83.65746 C39.3650758,83.670624 40.0092121,83.8048479 40.612441,84.0533 C41.9041793,84.5854701 42.9315773,85.6090292 43.4685794,86.8987662 C44.0055816,88.1885032 44.0081908,89.638749 43.475833,90.93041 C42.9435707,92.2223077 41.9197992,93.2497803 40.6298305,93.786701 C39.3398619,94.3236217 37.8894129,94.3259883 36.597699,93.79328 C35.3062078,93.2607188 34.279184,92.2369093 33.7425771,90.9470938 C33.2059702,89.6572783 33.2037395,88.2071202 33.736376,86.91566 C34.5644564,84.9074223 36.540478,83.613537 38.712299,83.65746 L38.712299,83.65746 Z M124.7608,84.88219 C135.251707,84.8820966 145.312969,89.0495171 152.731208,96.467661 C160.149448,103.885805 164.316998,113.947013 164.31704,124.43792 C164.316995,134.928826 160.149444,144.990031 152.731205,152.408172 C145.312966,159.826314 135.251706,163.993733 124.7608,163.99364 C102.914812,163.993554 85.2051598,146.283908 85.205067,124.43792 C85.2051543,102.591929 102.914809,84.8822756 124.7608,84.88219 L124.7608,84.88219 Z M194.22064,94.75963 C194.801956,94.7644807 195.381996,94.8149321 195.95542,94.91052 C194.749419,96.6008055 193.094036,97.9194563 191.1769,98.71701 C189.261938,99.5053899 187.164799,99.7430776 185.12197,99.40327 C186.324829,97.7171957 187.974885,96.4007673 189.88602,95.60247 C191.259978,95.0344352 192.733937,94.7478329 194.22064,94.75963 L194.22064,94.75963 Z M55.717464,94.91562 C57.0422204,94.9591989 58.3485008,95.2393914 59.574591,95.74296 C61.4871533,96.5374123 63.1397049,97.8504317 64.345876,99.53394 C62.3036966,99.8779593 60.2060179,99.6445659 58.289399,98.86008 C56.3707144,98.0665982 54.7126543,96.7515356 53.503129,95.06393 C54.2344441,94.9407405 54.9762528,94.8910563 55.717464,94.91562 L55.717464,94.91562 Z M203.38959,99.70758 C203.790589,100.30738 204.132231,100.944801 204.40968,101.61082 C205.267663,103.679703 205.480572,105.959537 205.0205,108.15151 C204.898602,108.100565 204.775942,108.051466 204.65256,108.00423 C204.756042,108.141581 204.856322,108.281315 204.95332,108.42332 C204.917022,108.586464 204.877048,108.748769 204.83343,108.91011 C204.925551,108.819987 205.016337,108.72851 205.10576,108.63571 C206.375941,110.480442 207.059153,112.665888 207.06585,114.90561 C207.065978,115.626941 206.995884,116.346572 206.85656,117.05432 C204.846643,115.873372 202.55817,115.249746 200.22699,115.24771 C195.131613,115.264673 190.507676,118.232627 188.37035,122.8581 C186.221428,118.237692 181.589757,115.281179 176.49407,115.27717 C174.32851,115.286059 172.198881,115.831292 170.29548,116.86415 C170.133644,116.564155 169.985694,116.256873 169.8521,115.94328 C169.791008,115.783052 169.733633,115.621433 169.68002,115.45855 C169.66757,115.289958 169.658967,115.121104 169.65422,114.95212 C169.655096,114.607702 169.671981,114.26351 169.70482,113.92066 C171.859584,114.147011 174.036856,113.835769 176.0419,113.01477 C180.745566,111.051272 183.884712,106.539372 184.09051,101.44649 C187.840364,104.898859 193.251395,105.864688 197.96408,103.92282 C200.115169,103.02507 201.987995,101.570016 203.38959,99.70758 L203.38959,99.70758 Z M46.078259,99.87863 C47.4841597,101.737889 49.3603767,103.188665 51.513584,104.08147 C56.2306137,106.013108 61.6396709,105.03538 65.381989,101.57465 C65.5986192,106.667168 68.7474532,111.17244 73.455398,113.12588 C75.458204,113.945077 77.6326487,114.255763 79.784728,114.03022 C79.8205804,114.37362 79.8404119,114.718504 79.844158,115.06375 C79.8394286,115.233422 79.830813,115.402963 79.818318,115.57224 C79.7661913,115.729874 79.710539,115.88632 79.651403,116.04146 C79.5172168,116.364238 79.3678778,116.680507 79.203884,116.98921 C77.3000641,115.957971 75.1704595,115.414341 73.005297,115.40688 C67.9100398,115.423749 63.2861347,118.39148 61.148657,123.01675 C58.9994347,118.396744 54.3678275,115.440673 49.272379,115.43685 C46.9414758,115.444659 44.6548054,116.073811 42.647977,117.25948 C42.5065713,116.551936 42.4344008,115.832303 42.432487,115.11077 C42.4303181,112.863547 43.109405,110.668451 44.380172,108.81503 C44.4706637,108.905946 44.5624849,108.995529 44.655606,109.08375 C44.613697,108.921854 44.5754472,108.759032 44.540886,108.59541 C44.6341348,108.462752 44.7302754,108.332151 44.829239,108.2037 C44.7133143,108.250453 44.5980642,108.298861 44.483524,108.34891 C44.0086198,106.152292 44.2107796,103.863309 45.063334,101.78393 C45.3390169,101.117402 45.6789281,100.479293 46.078259,99.87863 L46.078259,99.87863 Z M209.07865,100.02332 C210.933528,102.653559 213.437927,104.75863 216.34797,106.13354 C214.18904,108.518439 212.684167,111.421546 211.97976,114.56042 C210.606202,111.765322 208.282412,109.550529 205.4246,108.31273 C207.588969,106.071606 208.884385,103.132885 209.07865,100.02332 L209.07865,100.02332 Z M40.39075,100.20574 C40.5879318,103.328215 41.8953589,106.277212 44.076829,108.51996 C41.2159128,109.759259 38.8903519,111.977638 37.517541,114.77694 C36.8023795,111.632828 35.2837477,108.728039 33.110057,106.34645 C36.0278447,104.964681 38.5366658,102.848682 40.39075,100.20574 L40.39075,100.20574 Z M180.19669,100.58401 C180.77244,100.589209 181.346916,100.639139 181.91493,100.73335 C180.712491,102.419198 179.062998,103.735606 177.15243,104.53415 C175.233376,105.327533 173.130434,105.567421 171.082,105.22662 C172.288001,103.536335 173.943384,102.217684 175.86052,101.42013 C177.235434,100.854193 178.709924,100.569875 180.19669,100.58401 L180.19669,100.58401 Z M69.769834,100.70855 C71.0891802,100.752093 72.3902195,101.030323 73.611978,101.5302 C75.5307273,102.323824 77.1887943,103.639073 78.398248,105.32687 C76.3505157,105.67205 74.2470338,105.436641 72.326267,104.64733 C70.4143997,103.852914 68.7624246,102.540282 67.556533,100.85738 C68.2874908,100.734085 69.0289499,100.684227 69.769834,100.70855 L69.769834,100.70855 Z M217.94322,119.0542 C220.852166,119.05093 223.212988,121.406435 223.21628,124.31538 C223.220119,127.224322 220.865082,129.585605 217.95614,129.58947 C216.559124,129.591316 215.218601,129.038092 214.229501,128.051513 C213.240402,127.064934 212.683758,125.725826 212.68204,124.32881 C212.680058,122.931616 213.233295,121.590883 214.220001,120.601658 C215.206707,119.612433 216.546026,119.05578 217.94322,119.0542 L217.94322,119.0542 Z M31.566483,119.28623 C34.4754283,119.282673 36.8364836,121.637945 36.840062,124.54689 C36.8420436,125.944083 36.2888076,127.284817 35.302102,128.274042 C34.3153964,129.263266 32.976078,129.819919 31.578884,129.8215 C28.6701395,129.824485 26.3096306,127.469064 26.306339,124.56032 C26.3024998,121.651377 28.6575396,119.290093 31.566483,119.28623 L31.566483,119.28623 Z M236.24701,121.90364 C239.190904,121.907497 242.075186,122.733672 244.57467,124.28902 C242.079236,125.85089 239.197101,126.684585 236.25321,126.69611 C233.300962,126.69647 230.407653,125.869758 227.90127,124.30969 C230.403815,122.743835 233.294961,121.910326 236.24701,121.90364 L236.24701,121.90364 Z M13.269408,122.18062 C16.221608,122.180102 19.1149146,123.006633 21.621354,124.56652 C19.1188086,126.13238 16.227661,126.965891 13.27561,126.97258 C10.3316156,126.968411 7.44732804,126.141873 4.9479526,124.58616 C7.44354672,123.024836 10.3256688,122.191681 13.269408,122.18062 L13.269408,122.18062 Z M195.96162,122.66431 C198.037756,122.664067 200.072457,123.245336 201.83516,124.34225 C200.075363,125.443595 198.042281,126.030051 195.96627,126.03517 C193.895353,126.032369 191.866406,125.451034 190.10823,124.35672 C191.86361,123.258331 193.890931,122.672166 195.96162,122.66431 L195.96162,122.66431 Z M180.77856,122.68291 C182.849127,122.685903 184.877691,123.267231 186.63557,124.36136 C184.880189,125.459745 182.852868,126.045907 180.78218,126.05376 C178.706045,126.054006 176.671344,125.472741 174.90864,124.37583 C176.668734,123.2743 178.702199,122.687837 180.77856,122.68291 L180.77856,122.68291 Z M68.739925,122.82192 C70.8162366,122.821577 72.8511306,123.402846 74.613984,124.49985 C72.8537932,125.601657 70.8201308,126.188305 68.743541,126.19329 C66.6727493,126.190237 64.6439907,125.608724 62.886018,124.51432 C64.6415482,123.415842 66.6690607,122.829676 68.739925,122.82192 L68.739925,122.82192 Z M53.556355,122.84052 C55.6272717,122.843321 57.6562182,123.424657 59.414394,124.51897 C57.6589725,125.617813 55.6314529,126.204342 53.560488,126.21241 C51.4844268,126.212248 49.4499095,125.630624 47.687463,124.53344 C49.4472609,123.432094 51.4803432,122.845639 53.556355,122.84052 L53.556355,122.84052 Z M188.37397,125.85119 C190.520779,130.474419 195.152887,133.434037 200.25024,133.43936 C202.581194,133.431394 204.867871,132.802062 206.87465,131.61621 C207.016056,132.323754 207.088226,133.043387 207.09014,133.76492 C207.09246,136.012089 206.413555,138.20718 205.14297,140.06066 C205.052311,139.969566 204.960318,139.879809 204.86702,139.79142 C204.908592,139.953497 204.946498,140.116492 204.98071,140.28028 C204.887792,140.412753 204.791993,140.54318 204.69338,140.67147 C204.809129,140.624885 204.924208,140.57665 205.03858,140.52678 C205.513376,142.723232 205.311218,145.012017 204.45877,147.09124 C204.182924,147.757792 203.84284,148.395905 203.44333,148.99655 C202.037715,147.137433 200.161871,145.686665 198.00904,144.7937 C193.294108,142.861274 187.886565,143.836091 184.14322,147.29329 C183.92349,142.202506 180.773733,137.700265 176.06671,135.74878 C174.063859,134.92976 171.889416,134.619253 169.73738,134.84496 C169.701538,134.50156 169.681716,134.156676 169.67798,133.81143 C169.682688,133.641582 169.69129,133.471864 169.70378,133.30241 C169.755912,133.144951 169.811563,132.988678 169.87069,132.83371 C170.004555,132.511127 170.15355,132.195033 170.31718,131.88648 C172.221463,132.917968 174.351631,133.461605 176.51732,133.46881 C181.614368,133.450541 186.238747,130.479484 188.37396,125.85119 L188.37397,125.85119 Z M61.152273,126.00932 C63.2990772,130.63201 67.9306544,133.591342 73.027516,133.59697 C75.1932071,133.588323 77.3230208,133.043263 79.226621,132.0105 C79.3882837,132.310508 79.5360625,132.617793 79.669489,132.93138 C79.7309588,133.09228 79.7886801,133.254587 79.842606,133.41817 C79.8548726,133.58625 79.8633148,133.754586 79.867926,133.92305 C79.8672225,134.267634 79.8504944,134.612 79.817796,134.95503 C77.6625639,134.728254 75.4847283,135.039322 73.479165,135.8604 C68.7766649,137.822337 65.6370146,142.331388 65.428493,147.42248 C61.6778292,143.973669 56.2685657,143.010557 51.558021,144.95286 C49.4066154,145.850314 47.5334239,147.305203 46.13148,149.1676 C45.7306876,148.567942 45.3892184,147.930693 45.111903,147.26487 C44.2541639,145.195727 44.0416161,142.915702 44.502121,140.72367 C44.6240205,140.77444 44.7466802,140.823366 44.870058,140.87043 C44.7665703,140.732908 44.6662909,140.593 44.569301,140.45082 C44.6056146,140.288021 44.6455884,140.12606 44.689192,139.96506 C44.5972427,140.055187 44.5066262,140.146663 44.417372,140.23946 C43.1467256,138.3947 42.4631465,136.209048 42.456251,133.96904 C42.4564631,133.247675 42.526903,132.528044 42.666574,131.82033 C44.6761892,133.001101 46.9642813,133.624721 49.295111,133.62694 C54.3923466,133.608872 59.0169761,130.637783 61.152268,126.00932 L61.152273,126.00932 Z M212.01128,134.08014 C212.722962,137.227722 214.239716,140.136585 216.41308,142.52201 C213.496818,143.900177 210.988146,146.0116 209.13239,148.6498 C208.930477,145.534143 207.623192,142.592844 205.44579,140.35521 C208.31207,139.112635 210.640387,136.887311 212.01128,134.08014 Z M37.53511,134.29615 C38.9071119,137.099096 41.2340334,139.320656 44.097501,140.5614 C41.9364781,142.797647 40.6408052,145.729303 40.441909,148.83273 C38.5857843,146.206991 36.0818893,144.106142 33.17362,142.7344 C35.3318479,140.345554 36.8344798,137.438386 37.53511,134.29615 L37.53511,134.29615 Z M173.33767,143.40154 C174.662427,143.445119 175.968709,143.725311 177.1948,144.22888 C179.107236,145.023049 180.759776,146.335701 181.96609,148.01883 C179.924339,148.362979 177.827047,148.129946 175.91064,147.346 C173.991955,146.552518 172.333895,145.237456 171.12437,143.54985 C171.855345,143.426729 172.596804,143.377045 173.33767,143.40154 L173.33767,143.40154 Z M76.704812,143.49974 C76.7049837,143.49974 76.7051553,143.49974 76.705327,143.49974 C77.2862708,143.504304 77.8659625,143.554411 78.439073,143.6496 C77.2334229,145.339922 75.5784084,146.658742 73.661587,147.4566 C71.7467826,148.244882 69.6498378,148.482569 67.607177,148.14286 C68.8096157,146.457012 70.4591086,145.140604 72.369677,144.34206 C73.7438317,143.774136 75.2179716,143.487709 76.704812,143.49974 L76.704812,143.49974 Z M164.01886,148.74541 C165.383248,150.421073 167.140698,151.73348 169.13483,152.56585 C173.85152,154.497537 179.260285,153.520227 183.00272,150.06006 C183.219152,155.15277 186.36802,159.658292 191.07613,161.61181 C193.233093,162.495447 195.586656,162.787992 197.89431,162.4593 C197.754646,163.166858 197.546445,163.859142 197.27265,164.52636 C196.406559,166.624233 194.91897,168.406671 193.00986,169.63406 C192.965138,169.52596 192.91897,169.418464 192.87137,169.3116 C192.849507,169.462648 192.824535,169.61323 192.79647,169.76325 C192.671743,169.842238 192.545455,169.918733 192.41768,169.99269 C192.531371,169.993502 192.645067,169.992836 192.75874,169.99069 C192.365562,172.226069 191.297433,174.28749 189.69795,175.89782 C189.187723,176.40787 188.629048,176.867029 188.02983,177.2688 C187.443741,175.012879 186.266785,172.954009 184.62022,171.30431 C181.005597,167.712928 175.637394,166.541423 170.85517,168.30036 C172.602403,163.514062 171.418016,158.148939 167.81815,154.54305 C166.285546,153.022944 164.401285,151.904817 162.33269,151.28796 C162.433272,150.94279 162.550543,150.602703 162.68409,150.2689 C162.750286,150.120633 162.819722,149.973834 162.89235,149.82861 C162.996106,149.708874 163.10241,149.591371 163.21119,149.47618 C163.468308,149.219382 163.737865,148.975349 164.01889,148.74496 L164.01886,148.74541 Z M85.568353,148.83221 C85.8362904,149.050221 86.0939187,149.280604 86.340399,149.52261 C86.4565954,149.645579 86.569969,149.771185 86.680431,149.89933 C86.7551206,150.048261 86.826452,150.198852 86.894371,150.35099 C87.0271143,150.67411 87.1445503,151.003309 87.246288,151.33749 C85.1700415,151.951994 83.2783361,153.071215 81.740163,154.59517 C78.1444404,158.205475 76.9664874,163.572266 78.719677,168.3566 C73.935588,166.603501 68.5690761,167.781239 64.958759,171.37658 C63.3139275,173.028359 62.139281,175.088849 61.555865,177.34572 C60.9562036,176.944684 60.3970115,176.486218 59.886202,175.97681 C58.2975488,174.387391 57.2280181,172.353733 56.818689,170.14409 C56.9468636,170.144303 57.0750343,170.142636 57.20316,170.13909 C57.0594252,170.054103 56.9176238,169.965887 56.777864,169.87451 C56.7500618,169.714518 56.7257693,169.553936 56.705004,169.39288 C56.6559751,169.508125 56.6086002,169.624067 56.562894,169.74067 C54.6751626,168.520736 53.2016528,166.757137 52.336794,164.68258 C52.0612963,164.015878 51.851361,163.323937 51.709959,162.61655 C54.0182721,162.940135 56.3711199,162.642416 58.526081,161.75407 C63.2299097,159.790491 66.3690859,155.278341 66.574684,150.18527 C70.3243167,153.637996 75.7353735,154.604236 80.448257,152.66264 C82.445001,151.827924 84.20403,150.511845 85.568357,148.83186 L85.568353,148.83221 Z M187.39005,149.19395 C188.70954,149.23727 190.010758,149.515328 191.23271,150.01509 C193.151204,150.808655 194.809076,152.123711 196.01846,153.81124 C193.971278,154.156285 191.868376,153.921057 189.94803,153.13221 C188.035407,152.338122 186.382682,151.025464 185.17623,149.34226 C185.907376,149.219105 186.64901,149.169421 187.39005,149.19395 L187.39005,149.19395 Z M62.680863,149.32263 C63.2566404,149.328169 63.8311168,149.378444 64.399104,149.473 C63.1965238,151.158469 61.5470445,152.474509 59.636604,153.27277 C57.7179109,154.066131 55.6153524,154.306193 53.567206,153.96575 C54.772998,152.275807 56.4279989,150.957356 58.344692,150.15978 C59.7195337,149.59349 61.1940264,149.308822 62.680863,149.32263 L62.680863,149.32263 Z M211.02271,154.6856 C211.675768,154.699003 212.320635,154.833761 212.92441,155.083 C215.613725,156.191803 216.895006,159.270766 215.78625,161.9601 C214.677447,164.649133 211.598853,165.930356 208.90966,164.82194 C207.618018,164.28967 206.590741,163.266071 206.053841,161.976347 C205.516942,160.686623 205.514405,159.236434 206.04679,157.94484 C206.874541,155.936195 208.850634,154.641849 211.02271,154.6856 L211.02271,154.6856 Z M38.717985,154.87164 C39.4225155,154.876545 40.1189018,155.022747 40.765921,155.30159 L40.765921,155.30059 C42.0250631,155.842847 43.0231664,156.854672 43.548181,158.1211 C44.0833681,159.411529 44.0839847,160.861713 43.5498949,162.152597 C43.0158052,163.44348 41.990764,164.469309 40.700291,165.00439 C38.0132423,166.118528 34.9317643,164.843509 33.817507,162.15651 C32.7029074,159.469602 33.9774784,156.387867 36.664363,155.27321 C37.3151607,155.00337 38.0134795,154.866832 38.717985,154.87168 L38.717985,154.87164 Z M160.26405,159.85428 C162.28746,160.320069 164.139937,161.343337 165.61153,162.80811 C167.073668,164.274454 168.097085,166.12011 168.56639,168.13698 C166.548483,167.672343 164.700502,166.653222 163.2308,165.19452 C161.762486,163.726496 160.734744,161.876528 160.26405,159.85428 L160.26405,159.85428 Z M89.30146,159.89768 C88.8330005,161.920594 87.8072235,163.771825 86.340399,165.24154 C84.8725888,166.701835 83.026054,167.723095 81.008942,168.1902 C81.4757775,166.172533 82.4970542,164.325428 83.957599,162.85719 C85.4275031,161.390931 87.278717,160.365701 89.30146,159.89768 L89.30146,159.89768 Z M151.70695,161.91823 C152.324085,163.993904 153.445799,165.884375 154.97187,167.42073 C158.588619,171.012377 163.959358,172.181982 168.74209,170.41952 C166.990766,175.206525 168.173078,180.574695 171.77343,184.18302 C173.427472,185.825554 175.48957,186.997343 177.74723,187.57764 C177.346955,188.177931 176.889178,188.73782 176.38038,189.24938 C174.792881,190.840035 172.76048,191.912088 170.55128,192.32412 C170.551503,192.195602 170.549836,192.067089 170.54628,191.93862 C170.461141,192.082883 170.372752,192.225203 170.28118,192.36547 C170.121707,192.393263 169.961645,192.417569 169.80111,192.43837 C169.916013,192.487215 170.031608,192.534417 170.14786,192.57996 C168.93051,194.469029 167.169092,195.944684 165.09597,196.81226 C164.429676,197.088399 163.738085,197.299025 163.03098,197.44116 C163.351673,195.13262 163.051101,192.78032 162.16023,190.62659 C160.192914,185.92602 155.679958,182.791356 150.58833,182.58884 C154.032732,178.834034 154.989398,173.423541 153.04141,168.71527 C152.204276,166.71997 150.88626,164.962912 149.20495,163.60085 C149.422432,163.332595 149.652298,163.074622 149.8938,162.82777 C150.017921,162.710315 150.144735,162.595738 150.27414,162.48413 C150.421378,162.410203 150.570241,162.339559 150.72062,162.27225 C151.043704,162.138809 151.372903,162.020685 151.70712,161.91827 L151.70695,161.91823 Z M97.86425,161.97563 C98.2092721,162.076737 98.5491852,162.194525 98.88279,162.32858 C99.0305327,162.394796 99.176811,162.464233 99.32152,162.53684 C99.4416274,162.641267 99.5594779,162.748262 99.67499,162.85775 C99.9316102,163.11488 100.17547,163.384437 100.40569,163.66545 C98.7278768,165.027472 97.4128005,166.783155 96.577497,168.77625 C94.6393463,173.48857 95.6072991,178.897043 99.05952,182.64465 C93.9684454,182.858202 89.4623662,186.002522 87.505185,190.70721 C86.6188473,192.862898 86.3232714,195.215919 86.648909,197.52385 C85.9414195,197.383148 85.2493079,197.173904 84.582367,196.89908 C82.4856852,196.030718 80.7050676,194.541338 79.479836,192.63112 C79.5882771,192.586748 79.6961185,192.540924 79.803331,192.49366 C79.6521011,192.471439 79.5013457,192.4461 79.351161,192.41766 C79.2721603,192.292593 79.1956644,192.165961 79.121719,192.03784 C79.1209355,192.151704 79.1216356,192.265574 79.123819,192.37942 C76.8890569,191.98343 74.8290864,190.912779 73.220819,189.31139 C72.7115911,188.800554 72.2532999,188.241361 71.852429,187.64172 C74.1090609,187.058369 76.1693584,185.883912 77.821055,184.23935 C81.416857,180.626804 82.592704,175.257493 80.835858,170.47275 C85.6206535,172.229949 90.9902191,171.05429 94.602977,167.45846 C96.1249733,165.927267 97.2452442,164.043879 97.86428,161.97559 L97.86425,161.97563 Z M223.26538,163.53367 C225.148984,163.596237 227.006204,163.995266 228.74928,164.7119 C231.468155,165.840688 233.817637,167.706562 235.53284,170.09916 C232.629834,170.588592 229.647824,170.257298 226.92303,169.14263 C224.194745,168.014548 221.837059,166.14469 220.11725,163.74503 C221.156947,163.569721 222.21158,163.498915 223.26538,163.53367 L223.26538,163.53367 Z M27.022574,163.7378 C27.022746,163.7378 27.022918,163.7378 27.02309,163.7378 C27.8495923,163.744495 28.6742953,163.816028 29.489607,163.95174 C27.7750109,166.354999 25.4214472,168.229865 22.695707,169.36381 C19.973634,170.484172 16.9927252,170.821906 14.088997,170.33894 C15.7987778,167.942622 18.1439586,166.071562 20.860161,164.93669 C22.8134373,164.128918 24.9089255,163.721243 27.022574,163.7378 L27.022574,163.7378 Z M201.69977,166.69886 C201.150303,169.906176 201.450149,173.201461 202.56948,176.25693 C199.320607,176.399152 196.165491,177.388978 193.41759,179.12807 C194.432062,176.149656 194.34145,172.90572 193.1623,169.98858 C196.310854,169.95291 199.341382,168.785165 201.69977,166.69886 L201.69977,166.69886 Z M47.914322,166.86525 C50.2587628,168.936811 53.2667622,170.101631 56.39494,170.14929 C55.2449793,173.047178 55.1654644,176.260044 56.170666,179.21127 C53.4439211,177.49009 50.317267,176.5058 47.096283,176.3546 C48.1862411,173.315722 48.4681255,170.04583 47.914322,166.86525 L47.914322,166.86525 Z M115.33243,169.34314 C115.501245,169.348062 115.669925,169.356831 115.83834,169.36944 C115.996506,169.421887 116.153472,169.477885 116.30912,169.53739 C116.631379,169.671791 116.947126,169.821304 117.25531,169.98543 C116.221981,171.888179 115.676042,174.017252 115.66626,176.18246 C115.676609,181.277814 118.638512,185.905569 123.26115,188.04892 C118.638512,190.192271 115.676609,194.820026 115.66626,199.91538 C115.671196,202.246223 116.297492,204.533602 117.48062,206.54185 C116.773161,206.682356 116.053705,206.753662 115.33243,206.75476 C113.084969,206.754486 110.890394,206.07287 109.03824,204.79984 C109.129152,204.709518 109.218735,204.617869 109.30696,204.52492 C109.145056,204.566484 108.982234,204.60439 108.81862,204.63861 C108.686304,204.545178 108.556046,204.448865 108.42794,204.34974 C108.474351,204.465657 108.522416,204.580906 108.57212,204.69545 C106.375055,205.167688 104.086446,204.962827 102.00818,204.10789 C101.342062,203.831128 100.704468,203.490176 100.10442,203.08986 C101.96554,201.68646 103.418815,199.812207 104.3145,197.66022 C106.251945,192.945562 105.280866,187.535294 101.82473,183.78872 C106.917728,183.578467 111.427088,180.435035 113.3863,175.72926 C114.207607,173.727347 114.520598,171.553262 114.29735,169.40097 C114.641288,169.365581 114.986691,169.34626 115.33243,169.34307 L115.33243,169.34314 Z M134.19019,169.34314 C134.570962,169.343566 134.95146,169.363559 135.33018,169.40304 C135.113216,171.546938 135.428084,173.711262 136.24692,175.70447 C138.216344,180.405764 142.732302,183.539281 147.82554,183.7386 C144.377365,187.4927 143.417967,192.905232 145.36574,197.61579 C146.266212,199.766036 147.723777,201.637272 149.58822,203.03665 C148.988831,203.438306 148.351755,203.780641 147.68601,204.05881 C145.563743,204.939937 143.220537,205.141596 140.97893,204.63603 C141.018636,204.541061 141.057222,204.445628 141.09468,204.34975 C140.986724,204.429757 140.877326,204.5078 140.76654,204.58384 C140.639565,204.554898 140.513109,204.523727 140.38723,204.49034 C140.457733,204.561606 140.529051,204.63206 140.60117,204.70169 C138.727793,206.032326 136.488038,206.749605 134.19019,206.7548 C133.468744,206.753735 132.749116,206.682429 132.04149,206.54189 C133.224797,204.533693 133.85127,202.24631 133.85636,199.91542 C133.844611,194.818279 130.879388,190.190051 126.25373,188.04896 C130.879388,185.907869 133.844611,181.279641 133.85636,176.1825 C133.849563,174.030429 133.313049,171.913127 132.29418,170.01751 C132.624148,169.834138 132.963244,169.667695 133.31015,169.51883 C133.452738,169.464544 133.596428,169.4132 133.74113,169.36483 C133.890655,169.35457 134.040372,169.347335 134.19019,169.34313 L134.19019,169.34314 Z M171.02464,170.58854 C173.043101,171.052909 174.891651,172.072047 176.36178,173.531 C177.82982,174.998945 178.857373,176.848715 179.32801,178.87072 C177.304715,178.405225 175.452249,177.382324 173.98053,175.91793 C172.517932,174.451569 171.494146,172.605709 171.02464,170.58854 L171.02464,170.58854 Z M78.552762,170.64484 C78.0858365,172.662321 77.0645658,174.509235 75.604105,175.97733 C74.1342643,177.443779 72.2830444,178.469192 70.260244,178.93736 C70.7285552,176.9145 71.7541492,175.063271 73.220786,173.59349 C74.6887403,172.133115 76.5354656,171.111852 78.552762,170.64484 L78.552762,170.64484 Z M144.0299,170.73524 C145.721529,171.939055 147.042142,173.592637 147.84208,175.50859 C148.63298,177.422654 148.873353,179.519626 148.53609,181.56301 C146.848745,180.362474 145.530361,178.714405 144.7296,176.80464 C143.93397,174.886593 143.691577,172.784013 144.0299,170.73524 L144.0299,170.73524 Z M105.59246,170.77714 C105.935057,172.825044 105.697142,174.927969 104.90568,176.84757 C104.108845,178.75895 102.793863,180.409702 101.10901,181.61369 C100.767408,179.571388 101.003127,177.474266 101.78959,175.55876 C102.585657,173.64094 103.903056,171.98448 105.59246,170.77714 L105.59246,170.77714 Z M124.76131,174.58569 C125.860578,176.346989 126.444533,178.380981 126.447,180.45717 C126.441641,182.528085 125.857798,184.556315 124.76131,186.31314 C123.664826,184.556314 123.080986,182.528084 123.07563,180.45717 C123.078094,178.380982 123.662045,176.346991 124.76131,174.58569 L124.76131,174.58569 Z M149.87037,184.76853 C151.557983,185.969135 152.876559,187.6174 153.67738,189.52742 C154.472714,191.444997 154.715098,193.546994 154.37707,195.59526 C152.685216,194.391865 151.364251,192.738644 150.56387,190.82294 C149.773144,188.90883 149.532947,186.811863 149.87037,184.76853 L149.87037,184.76853 Z M99.78196,184.82223 C100.123659,186.864697 99.8879387,188.962009 99.10138,190.87767 C98.3056807,192.795551 96.9886442,194.452187 95.299547,195.65981 C94.9568471,193.611739 95.1947603,191.50862 95.986317,189.58886 C96.7827893,187.677421 98.0974113,186.026498 99.78196,184.82223 L99.78196,184.82223 Z M190.80586,184.98449 L190.80686,184.98449 C192.177315,185.002885 193.486629,185.554751 194.45677,186.5229 C196.515431,188.577553 196.519013,191.91195 194.46477,193.97102 C192.41067,196.030235 189.076272,196.034712 187.01665,193.98102 C186.027452,192.994554 185.470666,191.655517 185.46879,190.258511 C185.466915,188.861505 186.020104,187.520978 187.00665,186.53186 C188.011944,185.523896 189.382436,184.965783 190.8059,184.98467 L190.80586,184.98449 Z M58.942073,185.06409 C60.3128256,185.083992 61.6218098,185.637544 62.590945,186.60715 C64.6477421,188.664072 64.6477421,191.998868 62.590945,194.05579 C61.6030831,195.043592 60.263263,195.598485 58.8662578,195.598387 C57.4692526,195.59829 56.1295099,195.04321 55.141786,194.05527 C53.0849955,191.99835 53.0849955,188.66356 55.141786,186.60664 C56.1481033,185.600117 57.5189262,185.043695 58.942073,185.06409 L58.942073,185.06409 Z M124.76131,189.78473 C125.857706,191.541407 126.441546,193.569448 126.447,195.64019 C126.444628,197.716552 125.86067,199.750733 124.76131,201.51218 C123.661954,199.750732 123.077999,197.716551 123.07563,195.64019 C123.081081,193.569449 123.664917,191.541409 124.76131,189.78473 L124.76131,189.78473 Z M170.55697,192.74579 C173.462392,193.894296 176.682469,193.967417 179.63703,192.95198 C177.914488,195.681135 176.930144,198.810812 176.78036,202.03463 C173.743579,200.946455 170.476352,200.665119 167.29825,201.21814 C169.358798,198.872222 170.514362,195.867868 170.55697,192.74579 L170.55697,192.74579 Z M79.125336,192.78249 C79.1560836,195.924503 80.3143625,198.950955 82.38922,201.31065 C79.1849286,200.762087 75.8928813,201.061203 72.839932,202.1783 C72.6989834,198.926546 71.7089206,195.768397 69.968271,193.01814 C72.9496589,194.043252 76.2006204,193.959591 79.125336,192.78249 L79.125336,192.78249 Z M197.78166,197.27989 C200.658418,197.942165 203.292135,199.397048 205.3843,201.47964 C207.462939,203.563933 208.918044,206.18742 209.58559,209.05437 C206.716866,208.394103 204.089615,206.945613 202.00001,204.87219 C199.912308,202.785139 198.450982,200.155006 197.78166,197.27989 L197.78166,197.27989 Z M51.828811,197.36829 C51.1631042,200.244412 49.7049959,202.876528 47.619767,204.96628 C45.5325706,207.04234 42.9069191,208.494053 40.038833,209.15775 C40.7029151,206.289737 42.1549888,203.664266 44.231343,201.57734 C46.3209506,199.492193 48.9528751,198.034089 51.828811,197.36829 L51.828811,197.36829 Z M140.85284,204.95077 C143.111243,207.188889 146.106096,208.529937 149.27971,208.72419 C146.594849,210.625331 144.461044,213.203262 143.09508,216.19608 C140.682939,213.958032 137.721275,212.398487 134.5111,211.67595 C137.371457,210.27859 139.62561,207.888144 140.85284,204.95077 Z M108.74317,205.1027 C109.978888,207.965128 112.194332,210.293434 114.99188,211.66974 C111.846792,212.381002 108.940041,213.896076 106.55571,216.06689 C105.177655,213.147372 103.064861,210.635883 100.4243,208.77845 C103.547045,208.585165 106.497694,207.2814 108.74317,205.1027 L108.74317,205.1027 Z M160.59788,205.20554 C161.302375,205.209396 161.998938,205.354543 162.64634,205.63239 C163.905971,206.173127 164.905171,207.183634 165.4317,208.44927 C166.549257,211.134893 165.27817,214.217987 162.5926,215.33567 C159.907115,216.453293 156.824072,215.182457 155.70619,212.49708 C155.169136,211.207406 155.166437,209.757203 155.698687,208.465538 C156.230937,207.173874 157.25453,206.14657 158.54426,205.60965 C159.194875,205.338926 159.893199,205.20151 160.59788,205.20554 L160.59788,205.20554 Z M89.25185,205.28354 C89.252022,205.28354 89.252194,205.28354 89.252366,205.28354 C89.9053449,205.297496 90.5500328,205.432777 91.153543,205.68248 C93.841339,206.794514 95.1188814,209.874773 94.007117,212.56268 C93.4730997,213.85354 92.4481535,214.879387 91.1577626,215.414537 C89.8673716,215.949688 88.4172422,215.950304 87.126397,215.41625 C85.8354789,214.882426 84.8094953,213.857649 84.2741525,212.567361 C83.7388097,211.277072 83.7379606,209.826965 84.271792,208.53605 C85.1022224,206.528617 87.0799309,205.236962 89.25185,205.28354 L89.25185,205.28354 Z M124.76131,212.35959 C127.670259,212.359459 130.028539,214.717511 130.02869,217.62646 C130.028534,220.535405 127.670255,222.893451 124.76131,222.89332 C121.852365,222.893451 119.494086,220.535405 119.49393,217.62646 C119.494081,214.717511 121.852361,212.359459 124.76131,212.35959 L124.76131,212.35959 Z M164.39248,219.66044 C166.797544,221.372007 168.675084,223.723048 169.81231,226.44711 C170.936413,229.167935 171.278087,232.148685 170.79881,235.0533 C168.400496,233.346619 166.52658,231.003954 165.38829,228.28937 C164.25678,225.562563 163.911808,222.573299 164.39248,219.66044 L164.39248,219.66044 Z M85.335292,219.74624 C85.8224602,222.657772 85.4842951,225.647555 84.359125,228.37672 C83.2264095,231.093984 81.3571307,233.440787 78.962038,235.15254 C78.4764932,232.248981 78.8117243,229.267515 79.929937,226.54428 C81.061381,223.817861 82.9339046,221.462883 85.335292,219.74624 L85.335292,219.74624 Z M124.76131,227.57832 C126.324275,230.082787 127.154387,232.975018 127.15755,235.92717 C127.149855,238.87106 126.319918,241.754264 124.76131,244.25172 C123.202705,241.754263 122.372772,238.871059 122.36508,235.92717 C122.36824,232.975019 123.198349,230.082788 124.76131,227.57832 L124.76131,227.57832 Z" id="Shape"></path>
                </g>
            </g>
        </g>
    </g>
</svg>